<svg width="190" height="189" viewBox="0 0 190 189" fill="none" xmlns="http://www.w3.org/2000/svg">
<path d="M164.152 111.648L164.288 111.611C163.829 109.428 165.282 103.862 165.202 98.7762C165.121 93.6902 165.274 81.8928 165.274 81.8928C162.053 82.4286 158.058 81.5007 156.575 81.1047L156.6 80.9979C156.313 80.9056 156.048 80.7572 155.819 80.5613L155.753 80.7333C155.753 80.7333 154.435 81.6783 153.485 81.2294C152.554 80.593 151.797 79.7337 151.284 78.7299L151.276 78.7233C151.225 78.6751 150.935 78.4001 150.557 78.0108C149.764 77.1924 148.591 75.8685 148.491 75.1125C148.341 73.9671 155.962 67.458 156.916 67.4835C157.87 67.509 162.523 71.8645 164.394 72.7604C166.265 73.6562 172.173 76.6934 172.87 79.2884C172.87 79.2884 180.43 106.628 180.836 111.45C181.241 116.271 180.363 121.768 180.552 124.013C180.741 126.259 169.585 125.448 162.125 126.424C155.321 127.312 148.823 127.811 141.698 125.118C141.271 125.019 140.832 124.98 140.395 125.001C143.077 120.252 143.77 107.644 143.77 107.644L146.611 108.778C149.313 108.099 152.103 107.832 154.885 107.986C158.281 108.209 161.521 109.489 164.152 111.648Z" fill="#FFD997"/>
<path d="M170.122 3.84619L162.157 33.7148L156.806 29.2383L147.812 52.1867L141.644 47.1045L132.754 63.8036L140.067 38.4559L145.663 42.7594L155.768 16.891L160.417 22.3361L170.122 3.84619Z" fill="white"/>
<path d="M153.485 81.2294C153.485 81.2294 151.082 82.1744 150.139 80.807C149.211 79.4604 150.557 78.0107 150.557 78.0107C150.935 78.4001 151.225 78.6722 151.277 78.7233L151.284 78.7299C151.798 79.7337 152.554 80.593 153.485 81.2294Z" fill="#FFD997"/>
<path d="M130.59 96.4634C131.493 99.4099 128.936 100.17 126.599 100.228C126.363 100.228 126.126 100.221 125.89 100.228C125.086 100.215 124.287 100.115 123.505 99.9315L122.984 99.9826C122.775 97.8091 122.559 96.2725 122.559 96.2725L121.773 96.1922C122.151 95.9985 122.471 95.71 122.704 95.355C122.936 95 123.072 94.5907 123.098 94.1673C123.124 93.7439 123.04 93.3209 122.853 92.94C122.667 92.559 122.384 92.2332 122.033 91.9945C123.094 90.9002 123.873 89.5638 124.301 88.1011L124.628 88.1956C124.628 88.1956 129.325 92.3356 130.59 96.4634Z" fill="#ADDAB1"/>
<path d="M127.731 137.429C129.29 138.72 129.77 140.728 127.022 142.36C124.274 143.992 118.675 143.359 117.052 140.761C115.809 138.768 113.156 137.245 111.648 136.298C111.428 136.161 111.253 135.962 111.146 135.725C111.04 135.489 111.006 135.226 111.05 134.97L111.849 132.383C111.849 132.383 113.665 133.48 114.253 133.132C114.841 132.783 114.99 128.963 118.884 127.635C119.068 127.56 119.267 127.53 119.464 127.55C119.662 127.569 119.852 127.636 120.018 127.745C121.199 128.531 121.302 131.422 121.302 131.422L123.132 133.974C123.881 135.506 126.174 136.137 127.731 137.429Z" fill="#ADDAB1"/>
<path d="M93.2414 90.7693L92.7831 90.8723C92.6277 90.5695 92.4108 90.3025 92.1463 90.0883C91.8818 89.8742 91.5755 89.7176 91.247 89.6286C90.9185 89.5397 90.575 89.5203 90.2386 89.5717C89.9021 89.6232 89.5801 89.7443 89.2932 89.9273L89.246 89.7582C87.3456 87.1679 87.2019 82.7831 90.0965 81.8476C90.5166 81.7174 90.9552 81.6568 91.3949 81.668C91.9987 83.673 92.9788 85.5447 94.2828 87.183C91.1086 74.898 95.431 69.8631 101.078 65.2808C104.726 77.6168 117.049 76.4318 118.331 76.8759L118.475 76.8428C119.376 80.7514 119.012 84.8451 117.435 88.5334C118.946 87.1526 120.199 85.5152 121.138 83.6969L121.178 83.7187C121.718 83.6945 122.258 83.7642 122.775 83.9247C124.528 84.5115 124.815 86.2617 124.297 88.1035C123.869 89.5663 123.09 90.9027 122.029 91.9969C121.754 91.8096 121.444 91.6802 121.118 91.6168C120.792 91.5534 120.456 91.5571 120.131 91.6279C119.806 91.6987 119.499 91.8349 119.228 92.0283C118.958 92.2218 118.73 92.4683 118.558 92.7529L118.151 92.5431C116.52 95.0615 114.393 97.2205 111.899 98.8878C109.904 100.235 107.534 100.913 105.129 100.825C101.059 100.517 97.8048 97.6773 95.5406 94.588C94.6632 93.3853 93.8939 92.1074 93.2414 90.7693ZM112.318 79.2583C113.782 79.2495 115.246 79.3293 116.7 79.4973C115.118 78.2348 110.022 77.4788 109.636 78.3454C109.155 79.4161 110.792 79.3802 112.318 79.2583ZM108.935 92.8388C109.749 92.2096 110.504 91.5084 111.192 90.7438C109.438 90.3534 107.659 90.0838 105.868 89.9368C104.075 89.7464 102.265 89.7807 100.481 90.0388C101.121 90.8596 101.824 91.629 102.584 92.3399C103.414 93.2679 104.568 93.8428 105.809 93.9464C106.378 93.9817 106.948 93.9019 107.485 93.7115C108.022 93.5212 108.515 93.2244 108.935 92.8388ZM100.734 78.576C102.246 78.7962 103.876 78.936 103.468 77.8351C103.141 76.9468 98.0042 77.373 96.342 78.5325C97.8056 78.4594 99.2724 78.4739 100.734 78.576Z" fill="#FFD997"/>
<path d="M91.3948 81.6661C90.3897 78.6349 89.8143 75.4778 89.6853 72.287C89.2921 64.8385 97.611 55.8373 107.118 57.698L107.14 57.5799C109.165 57.295 111.228 57.4809 113.169 58.123C115.109 58.7652 116.876 59.8463 118.331 61.2824C122.188 64.8734 124.36 70.328 123.887 74.6863C123.817 75.3251 123.729 75.9375 123.623 76.5291C123.184 79.0355 122.346 81.455 121.139 83.695C120.2 85.5133 118.947 87.1505 117.436 88.5306C119.012 84.8425 119.376 80.7492 118.476 76.8409L118.332 76.874C117.048 76.4336 104.724 77.6149 101.079 65.2788C95.4318 69.8611 91.1094 74.8999 94.2836 87.1811C92.9793 85.5428 91.9989 83.6711 91.3948 81.6661Z" fill="black"/>
<path d="M122.983 99.981C123.246 102.57 123.361 105.172 123.328 107.774C123.188 112.845 120.48 124.784 120.48 124.784L120.008 127.742C119.842 127.633 119.652 127.566 119.454 127.547C119.257 127.527 119.058 127.557 118.874 127.632C114.984 128.96 114.83 132.78 114.243 133.129C113.656 133.477 111.839 132.38 111.839 132.38C111.788 132.014 112.581 129.262 112.526 128.656C112.104 124.128 111.581 114.896 110.68 111.774C110.633 111.611 110.595 111.445 110.566 111.278C110.38 109.884 110.369 108.472 110.533 107.076C110.824 104.332 111.287 101.609 111.92 98.9236L111.899 98.8867C114.393 97.2195 116.52 95.0605 118.151 92.542L118.558 92.7518C118.356 93.0856 118.238 93.4633 118.213 93.8527C118.184 94.2845 118.271 94.7161 118.464 95.1035C118.656 95.491 118.948 95.8203 119.31 96.0579C119.671 96.2956 120.09 96.433 120.522 96.4561C120.954 96.4793 121.384 96.3873 121.769 96.1897L122.555 96.27C122.555 96.27 122.774 97.8141 122.983 99.981Z" fill="#FFD997"/>
<path d="M123.624 76.5288C123.613 78.9612 123.473 82.6893 122.773 83.9187C122.257 83.7582 121.717 83.6885 121.177 83.7127L121.137 83.691C122.344 81.4523 123.184 79.0341 123.624 76.5288Z" fill="#ADDAB1"/>
<path d="M121.122 39.0059L118.892 40.6247L116.07 36.3457L117.237 41.4204L113.601 43.4351L112.177 39.0465L111.762 39.0097C113.196 37.1679 113.817 34.4302 111.703 33.8178L111.802 33.4805C112.132 32.5664 112.409 31.634 112.631 30.688L112.87 30.7428C112.87 30.7428 119.633 36.0631 121.122 39.0059Z" fill="#ADDAB1"/>
<path d="M116.7 79.4971C115.246 79.329 113.782 79.2492 112.318 79.258C110.792 79.3827 109.155 79.4158 109.636 78.3451C110.027 77.4786 115.118 78.2346 116.7 79.4971Z" fill="#ADDAB1"/>
<path d="M100.557 26.8055C96.664 26.5003 91.9229 26.4455 91.9229 26.4455C91.9229 26.4455 91.2557 26.3831 90.4808 26.2801C90.4118 26.4275 88.9329 29.5876 87.7072 31.5787L87.5012 31.454C87.329 30.5026 87.2103 29.5422 87.1459 28.5774C86.9513 25.5392 87.2225 20.7982 90.2975 17.6721C91.6961 16.1852 93.4002 15.0188 95.2924 14.2531C97.1847 13.4873 99.2204 13.1405 101.259 13.2363C103.29 13.4627 105.245 14.1345 106.985 15.2038C108.726 16.2732 110.209 17.7136 111.328 19.4223C113.835 23.0133 113.324 27.7222 112.631 30.6876C112.409 31.6337 112.132 32.5662 111.802 33.4801L111.703 33.8174C111.693 33.8132 111.684 33.8106 111.673 33.8099C110.056 32.2355 109.711 24.4827 109.711 24.4827C109.711 24.4827 106.922 27.5615 102.962 27.0475C102.241 26.952 101.419 26.8708 100.557 26.8055Z" fill="#ADDAB1"/>
<path d="M111.904 98.8894L111.925 98.9263C111.292 101.612 110.829 104.336 110.538 107.08C109.17 108.579 107.398 109.651 105.435 110.169C104.72 110.198 104.207 110.257 104.207 110.257C104.183 110.259 104.16 110.259 104.137 110.257C101.888 110.125 97.793 105.384 95.9984 104.232L95.4116 104.147C95.9495 102.747 96.0442 101.215 95.6828 99.7588C95.4927 99.2605 95.2698 98.7753 95.0156 98.3064L95.1177 98.2506L95.4295 94.6662L95.5439 94.585C97.8119 97.6789 101.063 100.519 105.132 100.822C107.537 100.911 109.908 100.235 111.904 98.8894Z" fill="#FFD997"/>
<path d="M87.574 31.8028V31.7952C87.6184 31.7262 87.6619 31.6525 87.7063 31.5788C88.9348 29.5943 90.4109 26.4276 90.4799 26.2802C91.2548 26.3832 91.9219 26.4455 91.9219 26.4455C91.9219 26.4455 96.663 26.5004 100.556 26.8056C101.418 26.8708 102.24 26.9521 102.96 27.0437C106.919 27.5578 109.708 24.479 109.708 24.479C109.708 24.479 110.053 32.228 111.671 33.8062C111.681 33.8069 111.691 33.8094 111.7 33.8137C113.814 34.4261 113.193 37.1637 111.758 39.0055C110.813 40.2199 109.498 41.0458 108.383 40.6054L108.2 40.4693C107.096 42.0345 105.629 43.3077 103.924 44.1794L103.991 44.1974L103.976 44.2749C103.976 44.2749 103.836 47.5729 98.4386 47.1514C94.0434 46.8065 92.9794 44.1539 92.7299 43.1116C92.6949 42.9728 92.6703 42.8316 92.6562 42.6892L92.8726 42.5247C91.6852 41.5431 90.7027 40.3373 89.9809 38.9762L89.6917 39.0462C88.484 39.3032 87.2914 38.2023 86.5609 36.7782C85.5044 34.7379 85.4014 32.0352 87.574 31.8028ZM103.544 29.8835C104.37 30.2511 107.43 29.8655 107.43 29.8655C106.362 28.8562 103.544 28.3459 103.236 28.963C102.928 29.5801 102.725 29.5168 103.546 29.8835H103.544ZM102.734 38.2609L95.7076 37.674C95.7076 37.674 96.4815 40.6895 99.1266 40.9097C101.631 41.1195 102.736 38.2609 102.736 38.2609H102.734ZM96.2907 29.2834C97.1638 29.0594 96.9474 29.0849 96.7452 28.4244C96.543 27.7638 93.6815 27.8045 92.4596 28.6228C92.4615 28.6181 95.4194 29.5055 96.2926 29.2787L96.2907 29.2834Z" fill="#FFD997"/>
<path d="M107.433 29.862C107.433 29.862 104.373 30.2475 103.547 29.8799C102.721 29.5123 102.935 29.5719 103.239 28.9595C103.544 28.3471 106.365 28.8565 107.433 29.862Z" fill="#ADDAB1"/>
<path d="M103.466 77.835C103.873 78.9359 102.244 78.796 100.732 78.5759C99.2703 78.4738 97.8035 78.4593 96.3398 78.5324C98.0021 77.3729 103.139 76.9467 103.466 77.835Z" fill="#ADDAB1"/>
<path d="M73.6347 131.275C75.4368 129.594 76.6218 128.552 76.6218 128.552L78.6139 122.7C78.3427 119.511 77.9316 115.148 77.8806 113.849C77.8295 112.55 78.629 111.75 78.629 110.503C78.629 109.255 77.8324 106.654 79.1318 106.606C79.1819 106.603 79.2323 106.606 79.282 106.613C80.485 106.742 81.4763 108.976 81.3771 110.701C81.3057 111.533 81.3082 112.369 81.3846 113.2L82.2758 114.943L82.3495 115.006C83.5525 113.578 84.8339 112.257 84.8339 112.257C84.8339 112.257 88.3776 101.99 89.0023 100.842C89.6269 99.6937 92.4733 99.4471 91.7314 102.185C90.9896 104.922 89.1856 110.705 89.1856 110.705L90.554 111.2C90.554 111.2 92.855 107.905 93.6659 107.098C93.7514 107.014 93.8531 106.949 93.9647 106.906C94.0763 106.863 94.1956 106.843 94.3151 106.848C95.2799 106.86 96.498 108.154 95.5918 110.103C96.0151 110.28 96.3776 110.577 96.6351 110.957C96.8925 111.337 97.0337 111.784 97.0414 112.242C97.0095 112.609 96.9047 112.966 96.7333 113.291C96.7333 113.291 98.1272 114.803 96.8581 118.227C95.3302 121.988 93.1363 125.442 90.382 128.424C89.7905 129.057 89.0624 129.548 88.2529 129.858C88.2529 129.858 87.9968 130.438 87.5413 131.448C86.6426 133.443 84.969 137.124 83.0176 141.27C80.7572 146.073 78.1149 151.504 75.8545 155.698C74.8549 157.629 73.7387 159.498 72.512 161.294C67.976 167.531 63.7169 167.781 62.014 170.192C60.3111 172.602 54.3529 172.037 52.9326 168.207C51.5122 164.377 50.2497 149.801 53.7217 144.694C55.8205 141.601 58.4277 134.285 60.3177 127.745C60.5493 127.833 69.8509 131.352 73.4977 131.128L73.6347 131.275Z" fill="#FFD997"/>
<path d="M96.7465 28.42C96.9487 29.0815 97.1651 29.055 96.292 29.279C95.4188 29.5029 92.4609 28.6175 92.4609 28.6175C93.6828 27.8001 96.549 27.7632 96.7465 28.42Z" fill="#ADDAB1"/>
<path d="M89.6826 131.395C90.776 132.302 90.5737 135.19 90.5737 135.19L92.1264 137.92C92.7132 139.52 94.9264 140.393 96.3382 141.839C97.7501 143.284 98.0194 145.335 95.1097 146.668C92.2001 148 86.7068 146.785 85.3677 144.033C84.8207 143.011 84.0992 142.092 83.2358 141.318L83.0156 141.27C84.9671 137.124 86.6406 133.443 87.5393 131.447L87.5913 131.469C87.9075 131.345 88.2326 131.244 88.5637 131.169C88.7547 131.113 88.9562 131.105 89.1511 131.144C89.346 131.184 89.5284 131.27 89.6826 131.395Z" fill="#ADDAB1"/>
<path d="M80.6164 104.234L76.0039 100.196C76.7736 98.049 77.7023 95.9626 78.7822 93.954C82.0254 89.331 88.1311 90.741 88.1311 90.741L88.4212 90.8912C88.2719 91.182 88.1844 91.5005 88.1642 91.8268C88.1359 92.2584 88.2225 92.6898 88.4153 93.077C88.6081 93.4643 88.9 93.7935 89.2615 94.0311C89.6229 94.2687 90.0409 94.4063 90.4728 94.4298C90.9047 94.4532 91.3351 94.3618 91.7202 94.1647L92.3439 94.1902C93.3275 95.4986 94.2201 96.8731 95.0154 98.3038C95.2696 98.7727 95.4925 99.2579 95.6826 99.7563C96.044 101.212 95.9493 102.744 95.4114 104.145C95.1214 105.074 94.7544 105.977 94.3142 106.846C94.1947 106.841 94.0755 106.86 93.9639 106.903C93.8522 106.946 93.7505 107.012 93.665 107.095C92.8542 107.902 90.5531 111.197 90.5531 111.197L89.1848 110.702C89.1848 110.702 90.9897 104.915 91.7306 102.182C92.4715 99.4491 89.6214 99.6939 89.0014 100.839C88.3815 101.985 84.833 112.254 84.833 112.254C84.833 112.254 83.5526 113.577 82.3486 115.002L82.2749 114.94L81.3838 113.197C81.3074 112.366 81.3048 111.53 81.3762 110.698C81.4755 108.974 80.4841 106.739 79.2812 106.61L80.092 106.604C80.2123 105.803 80.3875 105.011 80.6164 104.234Z" fill="#FFD997"/>
<path d="M95.5461 94.5849L95.4318 94.6662L95.1199 98.2506L95.0179 98.3064C94.2226 96.8756 93.33 95.5012 92.3464 94.1928L91.7227 94.1673C92.3001 93.8707 92.7361 93.3571 92.935 92.7392C93.1338 92.1212 93.0791 91.4497 92.7829 90.872L93.2413 90.769C93.8957 92.1064 94.667 93.3833 95.5461 94.5849Z" fill="#ADDAB1"/>
<path d="M92.7817 90.8721C92.9537 91.2073 93.046 91.5777 93.0512 91.9544C93.0565 92.3311 92.9747 92.704 92.8121 93.0438C92.6496 93.3837 92.4107 93.6815 92.1141 93.9138C91.8176 94.1462 91.4713 94.3069 91.1024 94.3834C90.7335 94.4599 90.3519 94.4501 89.9874 94.3549C89.6229 94.2596 89.2853 94.0814 89.001 93.8342C88.7167 93.5869 88.4934 93.2774 88.3484 92.9296C88.2035 92.5818 88.1408 92.2053 88.1654 91.8293C88.1925 91.4463 88.3085 91.0749 88.504 90.7444C88.6995 90.4139 88.9692 90.1334 89.2918 89.9252C89.5787 89.7421 89.9007 89.621 90.2371 89.5696C90.5736 89.5181 90.917 89.5375 91.2456 89.6265C91.5741 89.7154 91.8804 89.872 92.1449 90.0862C92.4094 90.3003 92.6263 90.5674 92.7817 90.8702V90.8721Z" fill="white"/>
<path d="M91.3962 81.6657C90.9565 81.6545 90.5179 81.7152 90.0977 81.8453L90.0609 81.7385C89.6389 79.9622 89.4734 78.1346 89.5695 76.3114C89.5761 74.1804 89.6866 72.2866 89.6866 72.2866C89.8157 75.4775 90.3911 78.6345 91.3962 81.6657Z" fill="#ADDAB1"/>
<path d="M90.3836 128.425L90.4602 128.507L89.6824 131.397C89.5286 131.272 89.3469 131.187 89.1527 131.147C88.9586 131.108 88.7577 131.116 88.5673 131.171C88.2362 131.246 87.9112 131.347 87.5949 131.471L87.543 131.449C87.9985 130.44 88.2546 129.86 88.2546 129.86C89.064 129.55 89.7922 129.059 90.3836 128.425Z" fill="#FFD997"/>
<path d="M90.0592 81.7424L90.096 81.8491C87.2005 82.7847 87.3442 87.1695 89.2455 89.7597L89.2928 89.9289C88.919 90.1652 88.6181 90.5005 88.4234 90.8975L88.1333 90.7473C88.1333 90.7473 82.0276 89.3298 78.7844 93.9603C77.7045 95.9689 76.7758 98.0553 76.0061 100.202C76.0061 100.202 72.8139 103.32 71.0051 103.768C70.8997 103.775 70.7953 103.793 70.6933 103.82C70.5027 103.842 70.3107 103.796 70.1499 103.692C69.8852 103.506 69.6437 103.289 69.4308 103.045C68.5803 102.077 68.2316 100.661 69.2106 98.7051C70.4325 96.2576 66.2934 97.4983 65.5374 92.7979C64.7814 88.0975 78.7834 74.2769 78.7834 74.2769C79.4097 74.7897 80.1282 75.1781 80.9002 75.4212L89.2625 76.3171H89.5678C89.4718 78.1397 89.6373 79.9667 90.0592 81.7424Z" fill="#ADDAB1"/>
<path d="M87.5009 31.4542L87.7069 31.579C87.6625 31.6527 87.6191 31.7264 87.5746 31.7954V31.8029C85.4011 32.0307 85.5051 34.7381 86.5616 36.7859L86.3159 36.8927L84.1878 40.9836L80.9332 38.3933L82.9262 33.5824L79.4297 37.3359L77.5 35.3694C79.4552 32.7167 87.0029 28.5852 87.0029 28.5852L87.1428 28.5776C87.2081 29.5425 87.3277 30.5028 87.5009 31.4542Z" fill="#ADDAB1"/>
<path d="M80.6554 57.1838C80.6554 57.1838 77.9149 70.445 77.8818 72.4852C77.8884 72.8324 77.9729 73.1737 78.1291 73.4838C78.2853 73.7939 78.5092 74.065 78.7843 74.2769C78.7843 74.2769 64.786 88.0957 65.5382 92.7989C66.2905 97.5022 70.4324 96.2586 69.2105 98.7061C68.2315 100.662 68.5764 102.078 69.4307 103.047C64.3259 105.925 59.6043 109.435 55.3776 113.494C45.7972 115.589 25.9531 107.068 25.9531 107.068C25.9531 107.068 41.0779 109.109 42.7514 86.733C44.5384 62.8245 67.3214 52.454 72.6134 51.0781C76.6524 54.2741 80.6554 57.1838 80.6554 57.1838Z" fill="black"/>
<path d="M60.3193 127.745C58.4293 134.287 55.8211 141.601 53.7222 144.694C50.2503 149.801 51.5128 164.376 52.9331 168.207C54.3535 172.038 60.3117 172.606 62.0146 170.192C63.7175 167.777 67.9738 167.535 72.5126 161.294C73.7393 159.498 74.8555 157.629 75.8551 155.698L77.8963 169.854L75.2985 183.02C75.2985 183.02 50.1085 183.871 35.703 183.02C14.0351 181.742 9.55859 147.222 9.55859 147.222C9.55859 147.222 27.7366 156.619 39.207 134.653C43.3699 126.743 48.8354 119.59 55.3741 113.495C59.6004 109.433 64.322 105.92 69.4272 103.04C69.6401 103.284 69.8816 103.501 70.1463 103.686C70.3071 103.791 70.4991 103.836 70.6897 103.815C67.7507 104.501 63.4207 111.883 62.746 117.31C62.1702 120.839 61.3595 124.325 60.3193 127.745Z" fill="#ADDAB1"/>
<path d="M57.3681 15.7936C57.5704 15.6688 57.6989 15.5989 57.6989 15.5989C57.603 14.4504 57.4088 13.3122 57.1187 12.1969C56.6273 10.2889 57.9521 9.96196 58.3264 10.854C58.7006 11.7461 59.4604 15.3343 59.4604 15.3343C59.4604 15.3343 60.4394 18.2326 61.5951 18.7023C62.7508 19.1719 63.9075 17.8111 65.2646 17.1392C66.6216 16.4673 67.5326 18.1334 66.5384 18.6768C65.5443 19.2201 64.0427 20.115 63.8924 21.146C63.7422 22.177 62.1574 23.6153 62.1574 23.6153L62.1867 23.7259L57.7452 24.944C56.2243 23.9428 54.9286 22.6358 53.9406 21.1063C53.9406 21.1063 49.9716 19.7777 49.5227 19.0406C49.0739 18.3035 49.2988 17.7081 50.9402 18.4462C51.9206 18.8904 52.9707 19.1609 54.0436 19.2456C54.0436 19.2456 54.0994 19.1389 54.1721 18.9848C54.3233 18.6957 54.5577 18.2288 54.6749 18.0455C54.8001 17.8576 54.9428 17.682 55.1011 17.521C55.3256 17.2921 55.5646 17.0778 55.8164 16.8794C56.312 16.4875 56.8302 16.1249 57.3681 15.7936Z" fill="#FFD997"/>
<path d="M57.3708 15.7936C56.8317 16.1227 56.3124 16.483 55.8154 16.8728L55.6207 16.7329C55.6207 16.7329 53.8923 13.1844 53.2317 12.0079C52.5712 10.8314 53.5436 9.98276 54.2334 10.6499C55.3835 12.2987 56.4313 14.0164 57.3708 15.7936Z" fill="#FFD997"/>
<path d="M55.0995 17.5144C54.9412 17.6754 54.7985 17.8511 54.6733 18.0389C54.5561 18.2279 54.3218 18.6891 54.1706 18.9782C54.1706 18.9782 51.896 16.2302 50.6996 15.1482C49.5032 14.0661 50.6486 13.3527 51.3715 13.9404C51.7854 14.2778 55.0995 17.5144 55.0995 17.5144Z" fill="#FFD997"/>
<path d="M88.8242 35.3848C88.94 36.6544 89.336 37.8825 89.9837 38.9805C90.7059 40.3402 91.6885 41.5446 92.8754 42.5252C94.5093 43.8541 96.5135 44.6461 98.6144 44.7932" stroke="black" stroke-width="0.980065" stroke-linecap="round" stroke-linejoin="round"/>
<path d="M89.6917 39.0501C88.484 39.3072 87.2914 38.2063 86.5609 36.7821C85.5044 34.7343 85.4014 32.0269 87.574 31.7992C87.9082 31.7642 88.2458 31.7791 88.5757 31.8436" stroke="black" stroke-width="0.980065" stroke-linecap="round" stroke-linejoin="round"/>
<path d="M103.913 44.1831C102.94 44.5978 101.911 44.8638 100.859 44.9722" stroke="black" stroke-width="0.980065" stroke-linecap="round" stroke-linejoin="round"/>
<path d="M109.848 37.1382C109.535 38.3514 108.974 39.4867 108.201 40.4731C107.098 42.0382 105.631 43.3115 103.926 44.1832" stroke="black" stroke-width="0.980065" stroke-linecap="round" stroke-linejoin="round"/>
<path d="M108.383 40.6096C109.498 41.05 110.809 40.224 111.758 39.0097C113.193 37.1679 113.814 34.4302 111.7 33.8179C111.691 33.8136 111.681 33.811 111.67 33.8103C111.347 33.7226 111.012 33.6819 110.676 33.6893" stroke="black" stroke-width="0.980065" stroke-linecap="round" stroke-linejoin="round"/>
<path d="M111.802 33.4801C112.132 32.566 112.408 31.6336 112.631 30.6876C113.324 27.7222 113.835 23.0114 111.328 19.4223C110.209 17.7136 108.726 16.2732 106.985 15.2038C105.245 14.1345 103.29 13.4627 101.26 13.2363C99.2204 13.1405 97.1847 13.4873 95.2924 14.2531C93.4002 15.0188 91.6961 16.1852 90.2975 17.6721C87.2225 20.7982 86.9513 25.5392 87.1459 28.5774C87.2103 29.5422 87.329 30.5026 87.5013 31.454" stroke="black" stroke-width="0.980065" stroke-linecap="round" stroke-linejoin="round"/>
<path d="M99.7651 32.6685C101.409 35.5819 99.2812 36.2651 99.2812 36.2651" stroke="black" stroke-width="0.980065" stroke-linecap="round" stroke-linejoin="round"/>
<path d="M92.6641 32.1772C93.2055 31.869 93.8274 31.7319 94.4483 31.7836C95.0691 31.8354 95.6597 32.0737 96.1426 32.4673" stroke="black" stroke-width="0.980065" stroke-linecap="round" stroke-linejoin="round"/>
<path d="M106.647 33.3404C106.163 32.9477 105.573 32.7099 104.952 32.6582C104.331 32.6064 103.71 32.7431 103.168 33.0503" stroke="black" stroke-width="0.980065" stroke-linecap="round" stroke-linejoin="round"/>
<path d="M92.4609 28.6184C93.6828 27.8 96.549 27.7679 96.7465 28.4199C96.944 29.072 97.1651 29.055 96.292 29.2789C95.4188 29.5029 92.4609 28.6184 92.4609 28.6184Z" stroke="black" stroke-width="0.980065" stroke-linecap="round" stroke-linejoin="round"/>
<path d="M107.433 29.8618C106.365 28.8526 103.547 28.3423 103.239 28.9594C102.931 29.5764 102.726 29.5131 103.547 29.8798C104.368 30.2465 107.433 29.8618 107.433 29.8618Z" stroke="black" stroke-width="0.980065" stroke-linecap="round" stroke-linejoin="round"/>
<path d="M92.6523 42.6968C92.6664 42.8392 92.691 42.9804 92.7261 43.1192C92.9755 44.1587 94.0396 46.8141 98.4348 47.1591C103.833 47.5805 103.973 44.2825 103.973 44.2825" stroke="black" stroke-width="0.980065" stroke-linecap="round" stroke-linejoin="round"/>
<path d="M95.7109 37.6743L102.737 38.2612C102.737 38.2612 101.632 41.1198 99.13 40.9072C96.4849 40.6898 95.7109 37.6743 95.7109 37.6743Z" stroke="black" stroke-width="0.980065" stroke-linecap="round" stroke-linejoin="round"/>
<path d="M111.67 33.8061C110.053 32.2318 109.708 24.479 109.708 24.479C109.708 24.479 106.919 27.5578 102.959 27.0437C102.24 26.9492 101.418 26.8708 100.556 26.8056C96.6629 26.5003 91.9219 26.4455 91.9219 26.4455C91.9219 26.4455 96.8132 22.9887 98.5236 20.6479" stroke="black" stroke-width="0.980065" stroke-linecap="round" stroke-linejoin="round"/>
<path d="M91.9234 26.4458C91.9234 26.4458 91.2563 26.3835 90.4814 26.2805C89.8832 26.1963 89.2236 26.0915 88.7539 25.9724C90.454 24.7673 92.0483 23.4196 93.5195 21.9438" stroke="black" stroke-width="0.980065" stroke-linecap="round" stroke-linejoin="round"/>
<path d="M90.4801 26.2769C90.4111 26.4281 88.9322 29.591 87.7065 31.5793C87.6621 31.653 87.6186 31.7267 87.5742 31.7957" stroke="black" stroke-width="0.980065" stroke-linecap="round" stroke-linejoin="round"/>
<path d="M100.559 26.806C102.495 25.4506 104.212 23.8071 105.651 21.9326" stroke="black" stroke-width="0.980065" stroke-linecap="round" stroke-linejoin="round"/>
<path d="M91.8477 86.5791C92.0533 88.049 92.5257 89.469 93.2415 90.7692C93.8959 92.1066 94.6672 93.3835 95.5464 94.5851C97.8144 97.6791 101.065 100.519 105.134 100.822" stroke="black" stroke-width="0.980065" stroke-linecap="round" stroke-linejoin="round"/>
<path d="M89.246 89.756C87.3456 87.1658 87.2019 82.781 90.0965 81.8454C90.5166 81.7153 90.9552 81.6546 91.3949 81.6659C91.6643 81.672 91.933 81.6964 92.1991 81.7386" stroke="black" stroke-width="0.980065" stroke-linecap="round" stroke-linejoin="round"/>
<path d="M120.125 88.4868C119.723 89.9488 119.055 91.3243 118.155 92.5446C116.525 95.0631 114.397 97.2221 111.903 98.8894C109.908 100.236 107.538 100.915 105.133 100.827" stroke="black" stroke-width="0.980065" stroke-linecap="round" stroke-linejoin="round"/>
<path d="M122.034 91.9948C123.095 90.9005 123.874 89.5642 124.302 88.1014C124.82 86.2596 124.534 84.5104 122.78 83.9226C122.264 83.7621 121.724 83.6924 121.184 83.7166" stroke="black" stroke-width="0.980065" stroke-linecap="round" stroke-linejoin="round"/>
<path d="M108.329 81.8418C108.244 82.7308 108.27 83.6268 108.405 84.5095C109.459 87.8558 107.008 87.904 107.008 87.904" stroke="black" stroke-width="0.980065" stroke-linecap="round" stroke-linejoin="round"/>
<path d="M97.9141 81.8371C98.5535 81.4202 99.3117 81.224 100.073 81.2784C100.834 81.3329 101.557 81.6349 102.131 82.1386" stroke="black" stroke-width="0.980065" stroke-linecap="round" stroke-linejoin="round"/>
<path d="M114.775 83.0305C114.204 82.5242 113.481 82.2204 112.72 82.166C111.958 82.1117 111.2 82.3099 110.562 82.73" stroke="black" stroke-width="0.980065" stroke-linecap="round" stroke-linejoin="round"/>
<path d="M96.3398 78.5295C98.0021 77.3699 103.144 76.9437 103.466 77.832C103.873 78.933 102.244 78.7931 100.732 78.5729C99.2703 78.4709 97.8035 78.4564 96.3398 78.5295Z" stroke="black" stroke-width="0.980065" stroke-linecap="round" stroke-linejoin="round"/>
<path d="M116.7 79.4971C115.118 78.2346 110.022 77.4786 109.636 78.3451C109.155 79.4158 110.792 79.3846 112.318 79.258C113.782 79.2492 115.246 79.329 116.7 79.4971Z" stroke="black" stroke-width="0.980065" stroke-linecap="round" stroke-linejoin="round"/>
<path d="M100.48 90.0386L111.187 90.7435C110.499 91.5082 109.744 92.2094 108.931 92.8386C108.512 93.2227 108.02 93.5185 107.484 93.7083C106.948 93.8981 106.38 93.978 105.812 93.9433C104.571 93.8397 103.417 93.2648 102.587 92.3368C101.826 91.6267 101.122 90.8583 100.48 90.0386Z" stroke="black" stroke-width="0.980065" stroke-linecap="round" stroke-linejoin="round"/>
<path d="M112.869 30.7427C112.869 30.7427 119.632 36.063 121.121 39.0058L118.891 40.6245L116.069 36.3456L117.236 41.4202L113.6 43.435L112.176 39.0464" stroke="black" stroke-width="0.980065" stroke-linecap="round" stroke-linejoin="round"/>
<path d="M87.0068 28.5854C87.0068 28.5854 79.4591 32.717 77.5039 35.3696L79.4336 37.3361L82.9301 33.5826L80.9371 38.3936L84.1917 40.9838L86.3198 36.8929" stroke="black" stroke-width="0.980065" stroke-linecap="round" stroke-linejoin="round"/>
<path d="M103.91 44.1831H103.924L103.99 44.2011C104.82 44.4212 111.891 46.3519 114.437 49.0744C118.495 53.4044 118.33 61.2782 118.33 61.2782" stroke="black" stroke-width="0.980065" stroke-linecap="round" stroke-linejoin="round"/>
<path d="M57.3784 15.805L57.3708 15.7937C56.4313 14.0162 55.3835 12.2982 54.2334 10.6491C53.5436 9.98194 52.5712 10.8258 53.2317 12.0071C53.8923 13.1883 55.6207 16.7321 55.6207 16.7321" stroke="black" stroke-width="0.980065" stroke-linecap="round" stroke-linejoin="round"/>
<path d="M57.7413 24.9374C56.2204 23.9362 54.9247 22.6292 53.9367 21.0997C53.9367 21.0997 49.9677 19.7711 49.5188 19.034C49.07 18.2969 49.2949 17.7015 50.9363 18.4396C51.9167 18.8838 52.9668 19.1543 54.0397 19.239C54.0397 19.239 54.0955 19.1322 54.1682 18.9782C54.3194 18.689 54.5538 18.2222 54.671 18.0389C54.796 17.8508 54.9387 17.6752 55.0972 17.5144C55.3217 17.2855 55.5607 17.0712 55.8125 16.8727C56.3095 16.483 56.8289 16.1226 57.368 15.7936C57.5702 15.6688 57.6988 15.5989 57.6988 15.5989C57.6028 14.4504 57.4087 13.3122 57.1185 12.1969C56.6271 10.2889 57.952 9.96196 58.3262 10.854C58.7005 11.7461 59.4602 15.3343 59.4602 15.3343C59.4602 15.3343 60.4393 18.2326 61.595 18.7023C62.7507 19.1719 63.9074 17.8111 65.2644 17.1392C66.6214 16.4673 67.5324 18.1334 66.5383 18.6768C65.5441 19.2201 64.0425 20.115 63.8923 21.146C63.742 22.177 62.1573 23.6153 62.1573 23.6153" stroke="black" stroke-width="0.980065" stroke-linecap="round" stroke-linejoin="round"/>
<path d="M55.0995 17.5146C55.0995 17.5146 51.7854 14.2779 51.3715 13.9406C50.6486 13.3575 49.5032 14.0615 50.6996 15.1483C51.896 16.235 54.1706 18.9784 54.1706 18.9784" stroke="black" stroke-width="0.980065" stroke-linecap="round" stroke-linejoin="round"/>
<path d="M92.6657 43.1375C92.6657 43.1375 87.3812 42.1547 84.3875 41.8826C84.2867 41.876 84.1864 41.8641 84.0869 41.8467C80.1274 41.3326 72.0854 37.494 72.0854 37.494L63.9584 23.2358L62.1828 23.7235L57.7413 24.9416L55.5508 25.5435C55.5508 25.5435 61.8209 40.8119 65.101 44.5324C67.4439 46.8922 69.953 49.0811 72.609 51.0822C76.6526 54.2744 80.6556 57.184 80.6556 57.184C80.6556 57.184 77.9152 70.4452 77.8821 72.4855C77.8886 72.8326 77.9731 73.1739 78.1294 73.4841C78.2856 73.7942 78.5095 74.0652 78.7845 74.2772C79.4108 74.79 80.1293 75.1784 80.9014 75.4216L89.2637 76.3174" stroke="black" stroke-width="0.980065" stroke-linecap="round" stroke-linejoin="round"/>
<path d="M100.48 90.0385C102.265 89.7804 104.074 89.7461 105.867 89.9365C107.658 90.0835 109.437 90.3531 111.191 90.7435" stroke="black" stroke-width="0.980065" stroke-linecap="round" stroke-linejoin="round"/>
<path d="M117.432 88.5339C118.943 87.1532 120.196 85.5157 121.135 83.6974C122.342 81.4574 123.181 79.0379 123.619 76.5315C123.725 75.9399 123.813 75.3276 123.883 74.6888C124.356 70.3304 122.182 64.8806 118.327 61.2849C116.872 59.8488 115.106 58.7676 113.165 58.1255C111.224 57.4833 109.161 57.2975 107.137 57.5824" stroke="black" stroke-width="0.980065" stroke-linecap="round" stroke-linejoin="round"/>
<path d="M109.715 64.3789C114.019 67.3638 117.123 71.7801 118.474 76.8406C119.375 80.7492 119.011 84.8429 117.435 88.5312" stroke="black" stroke-width="0.980065" stroke-linecap="round" stroke-linejoin="round"/>
<path d="M101.078 65.2785C95.4309 69.8608 91.1084 74.8995 94.2827 87.1807C92.9787 85.5424 91.9986 83.6707 91.3948 81.6657C90.3897 78.6345 89.8143 75.4775 89.6853 72.2866C89.2921 64.8381 97.611 55.837 107.118 57.6977C107.507 57.7705 107.896 57.8659 108.285 57.9812" stroke="black" stroke-width="0.980065" stroke-linecap="round" stroke-linejoin="round"/>
<path d="M118.331 76.874C117.047 76.4336 104.723 77.6148 101.078 65.2788" stroke="black" stroke-width="0.980065" stroke-linecap="round" stroke-linejoin="round"/>
<path d="M89.6866 72.2866C89.6866 72.2866 89.5761 74.1766 89.5695 76.3123C89.4734 78.1352 89.6389 79.9625 90.0609 81.7385" stroke="black" stroke-width="0.980065" stroke-linecap="round" stroke-linejoin="round"/>
<path d="M123.597 74.3232C123.597 74.3232 123.628 75.2446 123.624 76.5289C123.613 78.9613 123.473 82.6893 122.773 83.9188" stroke="black" stroke-width="0.980065" stroke-linecap="round" stroke-linejoin="round"/>
<path d="M88.4224 90.8941C88.273 91.1848 88.1855 91.5034 88.1653 91.8296C88.1296 92.3784 88.2798 92.9233 88.5918 93.3763C88.9037 93.8292 89.3592 94.1639 89.8847 94.3262C90.4101 94.4885 90.975 94.4691 91.4881 94.271C92.0011 94.0728 92.4325 93.7076 92.7125 93.2343C92.9925 92.7609 93.1049 92.207 93.0315 91.6619C92.958 91.1169 92.7031 90.6125 92.3078 90.2301C91.9125 89.8477 91.3998 89.6097 90.8526 89.5544C90.3054 89.4991 89.7556 89.6298 89.2918 89.9254C88.918 90.1617 88.6171 90.497 88.4224 90.8941Z" stroke="black" stroke-width="0.980065" stroke-linecap="round" stroke-linejoin="round"/>
<path d="M118.561 92.7543C118.359 93.0881 118.241 93.4658 118.216 93.8552C118.177 94.452 118.358 95.0424 118.725 95.5148C119.092 95.9871 119.619 96.3085 120.207 96.4182C120.795 96.528 121.403 96.4184 121.915 96.1102C122.428 95.802 122.81 95.3167 122.989 94.7459C123.167 94.1752 123.131 93.5587 122.886 93.0132C122.641 92.4676 122.204 92.0309 121.659 91.7855C121.113 91.5401 120.497 91.5032 119.926 91.6818C119.355 91.8603 118.87 92.2419 118.561 92.7543Z" stroke="black" stroke-width="0.980065" stroke-linecap="round" stroke-linejoin="round"/>
<path d="M78.7831 74.2769C78.7831 74.2769 64.7849 88.0956 65.5371 92.7989C66.2893 97.5021 70.4312 96.2585 69.2093 98.706C68.2303 100.662 68.5753 102.078 69.4295 103.046C69.6425 103.29 69.8839 103.507 70.1487 103.693C70.3095 103.797 70.5015 103.843 70.6921 103.821C70.7976 103.816 70.9022 103.798 71.0039 103.769C72.8126 103.326 76.0048 100.203 76.0048 100.203" stroke="black" stroke-width="0.980065" stroke-linecap="round" stroke-linejoin="round"/>
<path d="M69.4297 97.7443C69.4297 97.7443 71.5729 96.5781 72.8317 92.4787C74.0904 88.3793 77.1976 85.1512 79.3815 84.8101" stroke="black" stroke-width="0.980065" stroke-linecap="round" stroke-linejoin="round"/>
<path d="M97.8732 47.5996C97.8732 47.5996 91.2913 48.0721 92.5973 50.48C93.8664 52.8207 97.6719 47.8633 97.8666 47.611" stroke="black" stroke-width="0.980065" stroke-linecap="round" stroke-linejoin="round"/>
<path d="M97.874 47.5996L97.8674 47.611C97.7568 47.9152 95.2951 54.4395 92.7266 55.3269" stroke="black" stroke-width="0.980065" stroke-linecap="round" stroke-linejoin="round"/>
<path d="M97.9297 47.5996C97.9297 47.5996 104.513 48.0721 103.206 50.48C101.899 52.8878 97.9297 47.5996 97.9297 47.5996Z" stroke="black" stroke-width="0.980065" stroke-linecap="round" stroke-linejoin="round"/>
<path d="M97.9297 47.5996C97.9297 47.5996 99.2206 53.2866 103.978 54.054" stroke="black" stroke-width="0.980065" stroke-linecap="round" stroke-linejoin="round"/>
<path d="M104.136 110.257C104.136 110.257 98.2364 110.198 98.0597 112.348C98.048 112.68 98.1323 113.008 98.3025 113.293C99.9572 116.343 103.973 110.505 104.133 110.263" stroke="black" stroke-width="0.980065" stroke-linecap="round" stroke-linejoin="round"/>
<path d="M104.139 110.257V110.264C104.058 110.584 101.413 120.754 98.0625 121.911" stroke="black" stroke-width="0.980065" stroke-linecap="round" stroke-linejoin="round"/>
<path d="M104.207 110.257C104.207 110.257 104.721 110.198 105.436 110.169C107.006 110.103 109.553 110.198 109.828 111.435C109.88 111.815 109.795 112.201 109.589 112.525C107.902 115.636 104.207 110.257 104.207 110.257Z" stroke="black" stroke-width="0.980065" stroke-linecap="round" stroke-linejoin="round"/>
<path d="M104.207 110.257C104.207 110.257 105.448 119.612 108.845 120.795" stroke="black" stroke-width="0.980065" stroke-linecap="round" stroke-linejoin="round"/>
<path d="M72.6851 51.0591L72.6086 51.0818C67.3166 52.4577 44.5345 62.8234 42.7466 86.7366C41.0739 109.112 25.9492 107.068 25.9492 107.068C25.9492 107.068 45.7942 115.585 55.3737 113.494" stroke="black" stroke-width="0.980065" stroke-linecap="round" stroke-linejoin="round"/>
<path d="M80.3574 117.794C80.9044 116.786 81.5735 115.85 82.3495 115.006C83.5525 113.578 84.8339 112.257 84.8339 112.257C84.8339 112.257 88.3776 101.99 89.0023 100.842C89.6269 99.6937 92.4733 99.4471 91.7314 102.185C90.9896 104.922 89.1856 110.705 89.1856 110.705L90.554 111.2C90.554 111.2 92.855 107.905 93.6658 107.098C93.7514 107.014 93.8531 106.949 93.9647 106.906C94.0763 106.863 94.1956 106.843 94.3151 106.848C95.2799 106.86 96.498 108.154 95.5918 110.103C96.0151 110.28 96.3776 110.577 96.6351 110.957C96.8925 111.337 97.0337 111.784 97.0414 112.242C97.0095 112.609 96.9047 112.966 96.7333 113.291C96.7333 113.291 98.1272 114.803 96.8581 118.227C95.3302 121.988 93.1363 125.442 90.382 128.424C89.7905 129.057 89.0624 129.548 88.2529 129.858C88.2529 129.858 87.9968 130.438 87.5413 131.448C86.6426 133.443 84.969 137.124 83.0176 141.27C80.7572 146.073 78.1149 151.504 75.8545 155.698C74.8549 157.629 73.7387 159.498 72.512 161.294C67.976 167.531 63.7169 167.781 62.014 170.192C60.3111 172.602 54.3529 172.037 52.9326 168.207C51.5122 164.377 50.2497 149.801 53.7217 144.694C55.8205 141.601 58.4277 134.284 60.3177 127.745C61.359 124.325 62.1706 120.838 62.7473 117.309C63.4221 111.882 67.7558 104.5 70.691 103.814C70.793 103.786 70.8975 103.769 71.0029 103.762C71.0309 103.76 71.059 103.76 71.087 103.762" stroke="black" stroke-width="0.980065" stroke-linecap="round" stroke-linejoin="round"/>
<path d="M82.2778 114.943L81.3867 113.2C81.3103 112.369 81.3077 111.532 81.3791 110.701C81.4783 108.976 80.487 106.741 79.284 106.613C79.2343 106.605 79.184 106.603 79.1338 106.606C77.8344 106.654 78.6311 109.252 78.6311 110.503C78.6311 111.753 77.8344 112.55 77.8826 113.849C77.9308 115.147 78.3447 119.511 78.6159 122.7L76.6239 128.552C76.6239 128.552 75.4388 129.592 73.6367 131.275C68.2209 136.331 57.2126 147.182 56.0352 152.887" stroke="black" stroke-width="0.980065" stroke-linecap="round" stroke-linejoin="round"/>
<path d="M75.3022 183.02C75.3022 183.02 50.1123 183.871 35.7067 183.02C14.0351 181.742 9.55859 147.222 9.55859 147.222C9.55859 147.222 27.7366 156.619 39.207 134.653C43.3699 126.743 48.8354 119.59 55.3741 113.495C59.6004 109.433 64.322 105.92 69.4272 103.04" stroke="black" stroke-width="0.980065" stroke-linecap="round" stroke-linejoin="round"/>
<path d="M75.8544 155.698L77.8947 169.854L75.2969 183.02H135.613C135.613 183.02 128.667 164.357 128.667 160.017C128.592 156.768 128.296 153.527 127.779 150.318" stroke="black" stroke-width="0.980065" stroke-linecap="round" stroke-linejoin="round"/>
<path d="M123.129 133.972C123.885 135.506 126.174 136.137 127.731 137.429C129.287 138.72 129.77 140.728 127.022 142.36C124.274 143.992 118.675 143.359 117.052 140.761C115.809 138.768 113.156 137.245 111.648 136.298C111.428 136.161 111.253 135.962 111.146 135.725C111.04 135.489 111.006 135.226 111.05 134.97L111.849 132.383C111.849 132.383 113.665 133.48 114.253 133.132C114.841 132.783 114.99 128.963 118.884 127.635C119.068 127.56 119.267 127.53 119.464 127.55C119.662 127.569 119.852 127.636 120.018 127.745C121.199 128.531 121.302 131.422 121.302 131.422L123.132 133.974" stroke="black" stroke-width="0.980065" stroke-linecap="round" stroke-linejoin="round"/>
<path d="M111.924 98.9263C111.291 101.612 110.828 104.335 110.537 107.08C110.373 108.476 110.384 109.887 110.57 111.28C110.599 111.448 110.637 111.613 110.684 111.776C111.583 114.895 112.108 124.13 112.53 128.659C112.585 129.261 111.792 132.016 111.843 132.383" stroke="black" stroke-width="0.980065" stroke-linecap="round" stroke-linejoin="round"/>
<path d="M122.557 96.2729C122.557 96.2729 122.774 97.8142 122.983 99.983C123.246 102.572 123.361 105.174 123.328 107.776C123.188 112.847 120.48 124.786 120.48 124.786L120.008 127.744" stroke="black" stroke-width="0.980065" stroke-linecap="round" stroke-linejoin="round"/>
<path d="M160.483 71.1821C159.883 71.0036 159.244 71.0051 158.645 71.1865C158.046 71.368 157.514 71.7213 157.115 72.2027C155.815 73.8829 153.181 76.8956 153.276 78.0182C154.026 78.9583 154.879 79.8113 155.819 80.5612C156.048 80.7571 156.314 80.9055 156.6 80.9978C156.634 81.0057 156.669 81.0082 156.703 81.0054C157.452 80.9392 159.389 80.1974 159.255 78.5758" stroke="black" stroke-width="0.980065" stroke-linecap="round" stroke-linejoin="round"/>
<path d="M157.234 79.4745L156.258 78.367L158.089 77.0166C158.089 77.0166 160.559 79.655 163.252 80.3043" stroke="black" stroke-width="0.980065" stroke-linecap="round" stroke-linejoin="round"/>
<path d="M151.285 78.73C151.799 79.7338 152.555 80.5931 153.486 81.2295C154.431 81.6765 155.754 80.7334 155.754 80.7334" stroke="black" stroke-width="0.980065" stroke-linecap="round" stroke-linejoin="round"/>
<path d="M156.81 69.9204C155.728 70.2209 151.244 75.7794 150.869 76.9692C150.789 77.5843 150.935 78.2079 151.28 78.7231" stroke="black" stroke-width="0.980065" stroke-linecap="round" stroke-linejoin="round"/>
<path d="M151.287 78.7299L151.28 78.7233C151.229 78.6751 150.939 78.4001 150.561 78.0108C149.768 77.1924 148.594 75.8685 148.495 75.1125C148.344 73.9671 155.965 67.458 156.919 67.4835C157.874 67.509 162.526 71.8645 164.397 72.7604C166.268 73.6562 172.176 76.6934 172.874 79.2884C172.874 79.2884 180.434 106.628 180.839 111.45C181.245 116.271 180.367 121.768 180.556 124.013C180.745 126.259 169.588 125.448 162.128 126.424C155.324 127.312 148.826 127.811 141.701 125.118C141.274 125.019 140.836 124.98 140.398 125.001C139.147 125.001 137.451 125.114 136.941 125.118C134.819 125.22 132.692 125.117 130.59 124.81" stroke="black" stroke-width="0.980065" stroke-linecap="round" stroke-linejoin="round"/>
<path d="M150.557 78.0107C150.557 78.0107 149.211 79.4604 150.139 80.807C151.084 82.1716 153.485 81.2294 153.485 81.2294" stroke="black" stroke-width="0.980065" stroke-linecap="round" stroke-linejoin="round"/>
<path d="M155.988 80.939C155.988 80.939 156.201 81.0051 156.575 81.1043C158.058 81.5003 162.056 82.4273 165.275 81.8925C165.275 81.8925 165.121 93.6861 165.202 98.7758C165.283 103.866 163.829 109.428 164.288 111.611" stroke="black" stroke-width="0.980065" stroke-linecap="round" stroke-linejoin="round"/>
<path d="M165.743 114.796L164.254 111.736C164.254 111.736 164.217 111.703 164.151 111.648C161.522 109.489 158.284 108.207 154.89 107.982C152.107 107.828 149.318 108.095 146.615 108.774L143.775 107.64C143.775 107.64 135.669 100.466 126.599 100.225C126.364 100.225 126.127 100.217 125.89 100.225C125.204 100.231 124.519 100.282 123.84 100.379" stroke="black" stroke-width="0.980065" stroke-linecap="round" stroke-linejoin="round"/>
<path d="M95.1172 98.2504L95.429 94.666" stroke="black" stroke-width="0.980065" stroke-linecap="round" stroke-linejoin="round"/>
<path d="M110.54 107.08C109.171 108.579 107.399 109.651 105.437 110.169C105.032 110.246 104.62 110.276 104.208 110.257C104.185 110.259 104.162 110.259 104.138 110.257C101.889 110.124 97.7946 105.384 96 104.231" stroke="black" stroke-width="0.980065" stroke-linecap="round" stroke-linejoin="round"/>
<path d="M128.83 113.295C128.83 113.295 126.468 117.302 128.031 120.252C128.826 121.756 129.648 123.323 130.426 124.89C132.669 129.388 134.561 133.884 134.514 136.871C134.411 142.936 127.781 150.318 127.781 150.318" stroke="black" stroke-width="0.980065" stroke-linecap="round" stroke-linejoin="round"/>
<path d="M89.6914 151.21C93.8409 150.883 104.17 144.312 104.207 137.682" stroke="black" stroke-width="0.980065" stroke-linecap="round" stroke-linejoin="round"/>
<path d="M143.774 107.644C143.774 107.644 143.081 120.252 140.398 125.001" stroke="black" stroke-width="0.980065" stroke-linecap="round" stroke-linejoin="round"/>
<path d="M148.676 116.197C148.676 116.197 154.499 118.414 158.377 118.307" stroke="black" stroke-width="0.980065" stroke-linecap="round" stroke-linejoin="round"/>
<path d="M124.624 88.1929C124.624 88.1929 129.324 92.3358 130.59 96.4635C131.492 99.41 128.935 100.17 126.598 100.228C126.355 100.236 126.117 100.236 125.889 100.228C125.086 100.215 124.286 100.116 123.504 99.9317" stroke="black" stroke-width="0.980065" stroke-linecap="round" stroke-linejoin="round"/>
<path d="M117.258 134.834C118.365 133.282 119.922 131.734 121.327 131.99" stroke="black" stroke-width="0.980065" stroke-linecap="round" stroke-linejoin="round"/>
<path d="M118.723 136.669C119.831 135.117 121.387 133.568 122.792 133.825" stroke="black" stroke-width="0.980065" stroke-linecap="round" stroke-linejoin="round"/>
<path d="M120.191 138.136C121.3 136.585 122.855 135.036 124.261 135.293" stroke="black" stroke-width="0.980065" stroke-linecap="round" stroke-linejoin="round"/>
<path d="M87.5938 131.469C87.91 131.345 88.235 131.245 88.5662 131.169C88.7565 131.114 88.9574 131.106 89.1515 131.145C89.3457 131.185 89.5275 131.271 89.6813 131.396C90.7746 132.302 90.5724 135.19 90.5724 135.19L92.125 137.92" stroke="black" stroke-width="0.980065" stroke-linecap="round" stroke-linejoin="round"/>
<path d="M92.1249 137.92C92.7118 139.52 94.925 140.393 96.3368 141.839C97.7486 143.285 98.018 145.335 95.1083 146.668C92.1986 148 86.7054 146.785 85.3663 144.033C84.8193 143.011 84.0978 142.092 83.2344 141.318" stroke="black" stroke-width="0.980065" stroke-linecap="round" stroke-linejoin="round"/>
<path d="M90.4574 128.505L89.6797 131.396V131.399" stroke="black" stroke-width="0.980065" stroke-linecap="round" stroke-linejoin="round"/>
<path d="M86.1953 138.159C87.4616 136.731 89.1711 135.355 90.5423 135.759" stroke="black" stroke-width="0.980065" stroke-linecap="round" stroke-linejoin="round"/>
<path d="M87.4609 140.143C88.7301 138.713 90.4367 137.341 91.8079 137.74" stroke="black" stroke-width="0.980065" stroke-linecap="round" stroke-linejoin="round"/>
<path d="M88.7695 141.755C90.0358 140.323 91.7453 138.951 93.1165 139.351" stroke="black" stroke-width="0.980065" stroke-linecap="round" stroke-linejoin="round"/>
<path d="M94.3141 106.848C94.7543 105.98 95.1212 105.077 95.4112 104.147C95.9492 102.747 96.0438 101.215 95.6824 99.7589C95.4923 99.2606 95.2695 98.7754 95.0153 98.3065C94.22 96.8757 93.3274 95.5013 92.3438 94.1929" stroke="black" stroke-width="0.980065" stroke-linecap="round" stroke-linejoin="round"/>
<path d="M88.1311 90.7435C88.1311 90.7435 82.0254 89.326 78.7822 93.9565C77.7023 95.9651 76.7736 98.0515 76.0039 100.198L80.6164 104.234C80.3873 105.013 80.2121 105.806 80.092 106.609" stroke="black" stroke-width="0.980065" stroke-linecap="round" stroke-linejoin="round"/>
<path d="M80.6172 104.232L82.2757 102.721" stroke="black" stroke-width="0.980065" stroke-linecap="round" stroke-linejoin="round"/>
<path d="M60.3164 127.745C60.5479 127.833 69.8496 131.352 73.4963 131.128" stroke="black" stroke-width="0.980065" stroke-linecap="round" stroke-linejoin="round"/>
<path d="M105.454 87.5473C105.118 87.5763 104.781 87.4936 104.496 87.312" stroke="black" stroke-width="0.980065" stroke-linecap="round" stroke-linejoin="round"/>
</svg>
