<svg width="24" height="25" viewBox="0 0 24 25" fill="none" xmlns="http://www.w3.org/2000/svg">
<path d="M22 6.52832V8.94832C22 10.5283 21 11.5283 19.42 11.5283H16V4.53832C16 3.42832 16.91 2.52832 18.02 2.52832C19.11 2.53832 20.11 2.97832 20.83 3.69832C21.55 4.42832 22 5.42832 22 6.52832Z" stroke="#CCCCCC" stroke-miterlimit="10" stroke-linecap="round" stroke-linejoin="round"/>
<path d="M2 7.52832V21.5283C2 22.3583 2.93998 22.8283 3.59998 22.3283L5.31 21.0483C5.71 20.7483 6.27 20.7883 6.63 21.1483L8.28998 22.8183C8.67998 23.2083 9.32002 23.2083 9.71002 22.8183L11.39 21.1383C11.74 20.7883 12.3 20.7483 12.69 21.0483L14.4 22.3283C15.06 22.8183 16 22.3483 16 21.5283V4.52832C16 3.42832 16.9 2.52832 18 2.52832H7H6C3 2.52832 2 4.31832 2 6.52832V7.52832Z" stroke="#CCCCCC" stroke-miterlimit="10" stroke-linecap="round" stroke-linejoin="round"/>
<path d="M6 9.52832H12" stroke="#CCCCCC" stroke-linecap="round" stroke-linejoin="round"/>
<path d="M6.75 13.5283H11.25" stroke="#CCCCCC" stroke-linecap="round" stroke-linejoin="round"/>
</svg>
