<svg width="55" height="51" viewBox="0 0 55 51" fill="none" xmlns="http://www.w3.org/2000/svg">
<g clip-path="url(#clip0_316_60424)">
<rect x="8.5" y="4" width="35.0769" height="40.9231" rx="2" fill="#F3F5FB"/>
<path d="M44.8023 8.25621C45.3237 8.82933 45.0234 9.75214 44.2645 9.90859L37.6213 11.2782C36.9347 11.4197 36.3193 10.8291 36.4326 10.1372L37.6357 2.78845C37.7708 1.963 38.7993 1.65836 39.3622 2.27704L44.8023 8.25621Z" fill="#AEE6FA"/>
<rect width="7.59173" height="17.228" transform="translate(34.6719 1.20703) rotate(-45)" fill="white"/>
<rect x="18.5" y="21.001" width="16" height="1" rx="0.5" fill="#0D99C9"/>
<rect x="18.5" y="24.001" width="16" height="1" rx="0.5" fill="#0D99C9"/>
<rect x="18.5" y="27.001" width="16" height="1" rx="0.5" fill="#0D99C9"/>
</g>
<rect x="34.8047" y="36.1538" width="11.6923" height="11.6923" rx="5.84615" fill="#0D99C9"/>
<path d="M40.1693 43.3328V40.6161L39.3026 41.4828L38.8359 40.9994L40.5026 39.3328L42.1693 40.9994L41.7026 41.4828L40.8359 40.6161V43.3328H40.1693ZM38.5026 44.6661C38.3193 44.6661 38.1623 44.6008 38.0316 44.4701C37.9009 44.3394 37.8357 44.1825 37.8359 43.9994V42.9994H38.5026V43.9994H42.5026V42.9994H43.1693V43.9994C43.1693 44.1828 43.1039 44.3398 42.9733 44.4704C42.8426 44.6011 42.6857 44.6663 42.5026 44.6661H38.5026Z" fill="white"/>
<defs>
<clipPath id="clip0_316_60424">
<rect x="8.5" y="4" width="35.0769" height="40.9231" rx="2" fill="white"/>
</clipPath>
</defs>
</svg>
