<svg width="24" height="25" viewBox="0 0 24 25" fill="none" xmlns="http://www.w3.org/2000/svg">
<path d="M13 11.6758H7" stroke="#CCCCCC" stroke-linecap="round" stroke-linejoin="round"/>
<path d="M2 11.6772V7.05719C2 5.01719 3.65 3.36719 5.69 3.36719H11.31C13.35 3.36719 15 4.63719 15 6.67719" stroke="#CCCCCC" stroke-linecap="round" stroke-linejoin="round"/>
<path d="M17.48 12.7258C16.98 13.2058 16.74 13.9457 16.94 14.7057C17.19 15.6357 18.11 16.2258 19.07 16.2258H20V17.6758C20 19.8858 18.21 21.6758 16 21.6758H6C3.79 21.6758 2 19.8858 2 17.6758V10.6758C2 8.46578 3.79 6.67578 6 6.67578H16C18.2 6.67578 20 8.47578 20 10.6758V12.1257H18.92C18.36 12.1257 17.85 12.3458 17.48 12.7258Z" stroke="#CCCCCC" stroke-linecap="round" stroke-linejoin="round"/>
<path d="M22.0002 13.1489V15.2089C22.0002 15.7689 21.5402 16.2289 20.9702 16.2289H19.0402C17.9602 16.2289 16.9702 15.4389 16.8802 14.3589C16.8202 13.7289 17.0602 13.1389 17.4802 12.7289C17.8502 12.3489 18.3602 12.1289 18.9202 12.1289H20.9702C21.5402 12.1289 22.0002 12.5889 22.0002 13.1489Z" stroke="#CCCCCC" stroke-linecap="round" stroke-linejoin="round"/>
</svg>
