<svg width="120" height="120" viewBox="0 0 120 120" fill="none" xmlns="http://www.w3.org/2000/svg">
<path d="M18.4598 25.3717C16.8213 22.5332 14.8368 20.4447 12.5291 19.1178C10.4637 17.9178 8.66381 17.6409 7.12919 18.264L6.60973 18.5178C4.95973 19.464 4.14062 21.2524 4.14062 23.8947V67.2332C4.14062 69.8755 4.95973 72.6217 6.60973 75.4486C8.24819 78.2871 10.2214 80.3755 12.5291 81.7024C14.8368 83.0294 16.8213 83.2371 18.4598 82.2909C20.0982 81.3563 20.9291 79.5678 20.9291 76.914V33.5871C20.9291 30.9447 20.0982 28.1986 18.4598 25.3717Z" fill="#D4EDD6" stroke="#B4DFB7" stroke-width="0.230769" stroke-linecap="round" stroke-linejoin="round"/>
<path d="M88.7899 16.1293L84.0708 35.5601L60.9939 47.0985L65.713 27.6678C66.0591 26.3524 65.9439 24.7947 65.3439 23.0062C64.7554 21.2178 63.7977 19.5447 62.4593 17.9755C61.1323 16.4062 59.7591 15.3216 58.3168 14.7331C58.0514 14.6293 57.7977 14.537 57.5439 14.4678C56.4362 14.1562 55.4439 14.2139 54.6016 14.6293L77.6785 3.09084C78.7169 2.58315 79.963 2.61776 81.3938 3.19469C82.8361 3.78315 84.2093 4.86776 85.5362 6.43699C86.8746 8.00622 87.8323 9.6793 88.4208 11.4678C89.0208 13.2562 89.1361 14.8139 88.7899 16.1293Z" fill="#E6F4E7" stroke="#B4DFB7" stroke-width="0.230769" stroke-linecap="round" stroke-linejoin="round"/>
<path d="M92.2508 74.7676V84.4022C92.2508 84.956 92.1933 85.5329 92.0894 86.1099C91.9856 86.6983 91.8356 87.206 91.6163 87.6445L86.1125 99.3214L79.0393 114.321C78.7508 114.887 78.3701 115.36 77.897 115.729C77.7585 115.833 77.6087 115.937 77.4587 116.018L76.8587 116.318C76.5587 116.433 76.2355 116.525 75.8893 116.594C74.4239 116.871 72.8778 116.548 71.2739 115.614L37.7088 96.2406C35.4011 94.9022 33.4278 92.8252 31.7778 89.9868C30.1393 87.1483 29.3203 84.4137 29.3203 81.7599V32.7791C29.3203 31.4983 29.5509 30.4022 30.0009 29.5022C30.4509 28.6022 31.0625 27.9329 31.8356 27.4945L43.9279 20.6637L54.601 14.6291C55.4433 14.2137 56.4356 14.156 57.5433 14.4676C57.7971 14.5368 58.0509 14.6291 58.3162 14.7329C59.7585 15.3214 61.1317 16.406 62.4587 17.9752C63.7971 19.5445 64.7548 21.2176 65.3433 23.006C65.9433 24.7945 66.0585 26.3522 65.7124 27.6676L60.9933 47.0983L83.8626 60.2983C86.1011 61.5906 88.0508 63.6791 89.7355 66.5752C91.4085 69.4714 92.2508 72.206 92.2508 74.7676Z" fill="#D4EDD6" stroke="#B4DFB7" stroke-width="0.230769" stroke-linecap="round" stroke-linejoin="round"/>
<path d="M43.9289 20.6655L31.8366 27.4963C31.0635 27.9347 30.4518 28.604 30.0018 29.504C29.5518 30.404 29.3213 31.5001 29.3213 32.7809V76.8694L18.4634 82.2924C20.1018 81.3578 20.9327 79.5694 20.9327 76.9155V33.5886C20.9327 30.9463 20.1018 28.2001 18.4634 25.3732C16.8249 22.5347 14.8404 20.4463 12.5327 19.1194C10.4673 17.9194 8.66743 17.6424 7.13281 18.2655L29.6903 6.9809C31.3288 6.04628 33.302 6.24244 35.6096 7.5809C37.9173 8.90782 39.9018 10.9963 41.5403 13.8347C42.8903 16.1655 43.6981 18.4501 43.9289 20.6655Z" fill="#DFF1E0" stroke="#B4DFB7" stroke-width="0.230769" stroke-linecap="round" stroke-linejoin="round"/>
<path d="M7.13274 18.2656L6.61328 18.5195" stroke="#229EFF" stroke-width="0.230769" stroke-linecap="round" stroke-linejoin="round"/>
<path d="M115.327 63.2317V72.8663C115.327 73.4202 115.269 73.9971 115.165 74.574C115.061 75.1625 114.911 75.6702 114.692 76.1087L102.115 102.786C101.631 103.732 100.904 104.401 99.9345 104.782L77.4576 116.02C77.6076 115.939 77.7575 115.836 77.8959 115.732C78.369 115.363 78.7498 114.889 79.0382 114.324L86.1114 99.324L91.6153 87.6471C91.8345 87.2087 91.9845 86.701 92.0883 86.1125C92.1922 85.5356 92.2498 84.9587 92.2498 84.4048V74.7702C92.2498 72.2087 91.4075 69.474 89.7344 66.5779C88.0498 63.6817 86.1 61.5933 83.8615 60.301L60.9922 47.101L84.0691 35.5625L106.938 48.7625C109.177 50.0548 111.127 52.1433 112.811 55.0394C114.484 57.9356 115.327 60.6702 115.327 63.2317Z" fill="#DFF1E0" stroke="#B4DFB7" stroke-width="0.230769" stroke-linecap="round" stroke-linejoin="round"/>
<path d="M77.4594 116.02L76.8594 116.32" stroke="#229EFF" stroke-width="0.230769" stroke-linecap="round" stroke-linejoin="round"/>
</svg>
